<svg xmlns="http://www.w3.org/2000/svg" xmlns:svg="http://www.w3.org/2000/svg" id="svg2" width="240" height="40" version="1.1"><metadata id="metadata7"/><g id="layer1" transform="translate(0,-1012.3622)" style="display:inline"><path style="fill:#3498db;fill-opacity:1;stroke:#3498db;stroke-width:2;stroke-linecap:round;stroke-linejoin:round;stroke-miterlimit:4;stroke-dasharray:none;stroke-opacity:1" id="path3819" d="m 136,1026.3622 10,6 -10,6 z"/><path style="fill:#3498db;fill-opacity:1" id="path3-0" d="m 20.11329,1024.8869 c 1.51525,-1.5152 3.73031,-1.8995 5.60282,-1.1568 l -3.58249,3.5826 c -0.19802,0.1977 -0.19752,0.521 5.1e-4,0.719 l 2.19757,2.1975 c 0.19777,0.1973 0.52181,0.1983 0.71908,0 l 3.58249,-3.5826 c 0.7424,1.8724 0.35802,4.0878 -1.15672,5.6021 -1.31089,1.3115 -3.14663,1.7719 -4.83074,1.3916 l -5.90889,5.9094 c -1.083439,1.0834 -2.840329,1.0834 -3.923769,0 -1.0842,-1.0834 -1.0842,-2.8401 0,-3.9243 0.001,0 0.002,0 0.004,0 l 5.904569,-5.9051 c -0.37957,-1.6845 0.0811,-3.52 1.39202,-4.8306 z m -6.311269,13.6744 c 0.53754,0.5368 1.40825,0.5368 1.94579,0 0.536519,-0.5373 0.537029,-1.408 0,-1.9453 -0.53754,-0.5367 -1.40825,-0.5378 -1.94579,0 -0.53728,0.5373 -0.53703,1.4078 0,1.9459 z"/><circle style="fill:none;stroke:#3498db;stroke-width:1.99999988;stroke-miterlimit:4;stroke-dasharray:none;stroke-opacity:1" id="path4108" cx="20" cy="1032.362" r="13"/><circle id="path3863" cx="60" cy="1032.362" r="13" style="fill:none;stroke:#3498db;stroke-width:1.99999988;stroke-miterlimit:4;stroke-dasharray:none;stroke-opacity:1"/><path style="fill:none;stroke:#3498db;stroke-width:2;stroke-linecap:round;stroke-linejoin:round;stroke-miterlimit:4;stroke-dasharray:none;stroke-opacity:1" id="path3865" d="m 58,1026.3622 h -4 v 4"/><path id="path3867" d="m 62,1026.3622 h 4 v 4" style="fill:none;stroke:#3498db;stroke-width:2;stroke-linecap:round;stroke-linejoin:round;stroke-miterlimit:4;stroke-dasharray:none;stroke-opacity:1"/><path style="fill:none;stroke:#3498db;stroke-width:2;stroke-linecap:round;stroke-linejoin:round;stroke-miterlimit:4;stroke-dasharray:none;stroke-opacity:1" id="path3869" d="m 58,1038.3622 h -4 v -4"/><path id="path3871" d="m 62,1038.3622 h 4 v -4" style="fill:none;stroke:#3498db;stroke-width:2;stroke-linecap:round;stroke-linejoin:round;stroke-miterlimit:4;stroke-dasharray:none;stroke-opacity:1"/><circle id="circle4192" cx="140" cy="1032.362" r="13" style="fill:none;stroke:#3498db;stroke-width:1.99999988;stroke-miterlimit:4;stroke-dasharray:none;stroke-opacity:1"/><circle id="circle4211" cx="100" cy="1032.362" r="13" style="fill:none;stroke:#3498db;stroke-width:1.99999988;stroke-miterlimit:4;stroke-dasharray:none;stroke-opacity:1"/><path id="path4213" d="m 93,1026.3622 h 14 v 12 H 93 Z" style="fill:none;stroke:#3498db;stroke-width:2;stroke-linecap:round;stroke-linejoin:round;stroke-miterlimit:4;stroke-dasharray:none;stroke-opacity:1"/><path id="path4215" d="m 93,1038.3622 v -1 l 5,-5 3,3 2,-2 4,4 v 1" style="fill:#3498db;fill-opacity:1;fill-rule:evenodd;stroke:#3498db;stroke-width:1px;stroke-linecap:square;stroke-linejoin:miter;stroke-opacity:1"/><circle style="opacity:1;fill:#3498db;fill-opacity:1;stroke:none;stroke-width:1;stroke-linecap:round;stroke-linejoin:round;stroke-miterlimit:4;stroke-dasharray:none;stroke-dashoffset:0;stroke-opacity:1" id="path4219" cx="103.5" cy="1029.862" r="1.5"/><circle style="fill:none;stroke:#3498db;stroke-width:1.99999988;stroke-miterlimit:4;stroke-dasharray:none;stroke-opacity:1" id="circle4149" cx="180" cy="1032.362" r="13"/><path style="fill:none;fill-rule:evenodd;stroke:#3498db;stroke-width:2;stroke-linecap:round;stroke-linejoin:miter;stroke-miterlimit:4;stroke-dasharray:none;stroke-opacity:1" id="path4151" d="m 175,1027.3622 10,10"/><path style="fill:none;fill-rule:evenodd;stroke:#3498db;stroke-width:2;stroke-linecap:round;stroke-linejoin:miter;stroke-miterlimit:4;stroke-dasharray:none;stroke-opacity:1" id="path4153" d="m 175,1037.3622 10,-10"/><path style="fill:#3498db;fill-opacity:1;stroke:#3498db;stroke-width:2;stroke-linecap:round;stroke-linejoin:round;stroke-miterlimit:4;stroke-dasharray:none;stroke-opacity:1" id="path3819-3" d="m 212,1026.3622 10,6 -10,6 z"/><circle id="circle4192-6" cx="219" cy="1032.362" r="13" style="fill:none;stroke:#3498db;stroke-width:1.99999988;stroke-miterlimit:4;stroke-dasharray:none;stroke-opacity:1"/><path style="display:inline;fill:#3498db;fill-opacity:1;stroke:#3498db;stroke-width:2;stroke-linecap:round;stroke-linejoin:round;stroke-miterlimit:4;stroke-dasharray:none;stroke-opacity:1" id="path3819-3-7" d="m 219,1026.3622 10,6 -10,6 z"/></g></svg>
