<svg xmlns="http://www.w3.org/2000/svg" width="320" height="40"><style><![CDATA[.B{stroke-width:2}.C{stroke-linejoin:round}.D{fill:#3498db}.E{stroke:#3498db}.F{stroke-linecap:round}]]></style><g class="D"><path d="M136 14l10 6-10 6z" class="B C E"/><path d="M20.113 12.525c1.515-1.515 3.73-1.899 5.603-1.157l-3.582 3.583a.51.51 0 0 0 .001.719l2.198 2.197a.51.51 0 0 0 .719 0l3.582-3.583c.742 1.872.358 4.088-1.157 5.602-1.311 1.312-3.147 1.772-4.831 1.392l-5.909 5.909c-1.083 1.083-2.84 1.083-3.924 0s-1.084-2.84 0-3.924l5.909-5.905c-.38-1.685.081-3.52 1.392-4.831zm-6.311 13.674c.538.537 1.408.537 1.946 0s.537-1.408 0-1.945-1.408-.538-1.946 0-.537 1.408 0 1.946z"/></g><g class="E"><g fill="none" class="B"><circle r="13" cy="20" cx="20"/><circle r="13" cy="20" cx="60"/><path d="M58 14h-4v4m8-4h4v4m-8 8h-4v-4m8 4h4v-4" class="C F"/><circle r="13" cy="20" cx="140"/><circle r="13" cy="20" cx="100"/><path d="M93 14h14v12H93z" class="C"/></g><path d="M93 26v-1l5-5 3 3 2-2 4 4v1" fill-rule="evenodd" stroke-linecap="square" class="D"/></g><circle cx="103.5" cy="17.5" r="1.5" class="D"/><g class="E"><g fill="none" class="B"><circle cx="180" cy="20" r="13"/><g class="F"><path d="M175 15l10 10"/><path d="M175 25l10-10"/></g><circle r="13" cy="20" cx="220"/><path d="M213 14h14v12h-14z" class="C"/><circle r="13" cy="20" cx="260"/></g><g class="C"><path d="M252 13h6.134v5.134H252zm0 8.75h6.134v5.134H252zm9.75-8.75h6.134v5.134h-6.134z" fill="none" stroke-width="1.5"/><path d="M293 14l10 6-10 6z" class="B D"/></g><circle r="13" cy="20" cx="300" fill="none" class="B"/><path d="M300 14l10 6-10 6z" class="B C D"/></g></svg>
