<svg xmlns="http://www.w3.org/2000/svg" xmlns:svg="http://www.w3.org/2000/svg" xmlns:xlink="http://www.w3.org/1999/xlink" id="svg2" width="64" height="64" version="1.1" xml:space="preserve"><metadata id="metadata8"/><defs id="defs6"><linearGradient id="linearGradient4351"><stop id="stop4353" offset="0" style="stop-color:#737373;stop-opacity:1"/><stop id="stop4355" offset="1" style="stop-color:#585858;stop-opacity:1"/></linearGradient><linearGradient id="linearGradient4205"><stop style="stop-color:#4aa3e0;stop-opacity:1" id="stop4207" offset="0"/><stop style="stop-color:#3096db;stop-opacity:1" id="stop4209" offset="1"/></linearGradient><linearGradient id="linearGradient4197"><stop style="stop-color:#787878;stop-opacity:1" id="stop4199" offset="0"/><stop style="stop-color:#585858;stop-opacity:1" id="stop4201" offset="1"/></linearGradient><linearGradient id="linearGradient4203" x1="26.446" x2="26.446" y1="47.518" y2="3.818" gradientUnits="userSpaceOnUse" xlink:href="#linearGradient4351"/><linearGradient id="linearGradient4211" x1="26.602" x2="26.602" y1="43.035" y2="29.466" gradientTransform="matrix(0.96428571,0,0,0.96428571,0.91428571,0.91428571)" gradientUnits="userSpaceOnUse" xlink:href="#linearGradient4205"/><filter style="color-interpolation-filters:sRGB" id="filter4285"><feFlood id="feFlood4287" flood-color="#000" flood-opacity=".588" result="flood"/><feComposite id="feComposite4289" in="flood" in2="SourceGraphic" operator="in" result="composite1"/><feGaussianBlur id="feGaussianBlur4291" in="composite1" result="blur" stdDeviation=".6"/><feOffset id="feOffset4293" dx="0" dy="-1" result="offset"/><feComposite id="feComposite4295" in="SourceGraphic" in2="offset" operator="over" result="composite2"/></filter><linearGradient id="linearGradient4309" x1="26.446" x2="26.446" y1="47.518" y2="3.818" gradientUnits="userSpaceOnUse" xlink:href="#linearGradient4197"/><linearGradient id="linearGradient4311" x1="26.446" x2="26.446" y1="47.518" y2="3.818" gradientUnits="userSpaceOnUse" xlink:href="#linearGradient4197"/><linearGradient id="linearGradient4313" x1="26.446" x2="26.446" y1="47.518" y2="3.818" gradientUnits="userSpaceOnUse" xlink:href="#linearGradient4197"/><filter style="color-interpolation-filters:sRGB" id="filter4315" x="-.1" y="-.16"><feFlood id="feFlood4317" flood-color="#000" flood-opacity=".588" result="flood"/><feComposite id="feComposite4319" in="flood" in2="SourceGraphic" operator="in" result="composite1"/><feGaussianBlur id="feGaussianBlur4321" in="composite1" result="blur" stdDeviation=".6"/><feOffset id="feOffset4323" dx="0" dy="-1" result="offset"/><feComposite id="feComposite4325" in="SourceGraphic" in2="offset" operator="over" result="composite2"/></filter><filter style="color-interpolation-filters:sRGB" id="filter4327"><feFlood id="feFlood4329" flood-color="#000" flood-opacity=".588" result="flood"/><feComposite id="feComposite4331" in="flood" in2="SourceGraphic" operator="in" result="composite1"/><feGaussianBlur id="feGaussianBlur4333" in="composite1" result="blur" stdDeviation=".6"/><feOffset id="feOffset4335" dx="0" dy="-1" result="offset"/><feComposite id="feComposite4337" in="SourceGraphic" in2="offset" operator="over" result="composite2"/></filter><filter style="color-interpolation-filters:sRGB" id="filter4339"><feFlood id="feFlood4341" flood-color="#000" flood-opacity=".588" result="flood"/><feComposite id="feComposite4343" in="flood" in2="SourceGraphic" operator="in" result="composite1"/><feGaussianBlur id="feGaussianBlur4345" in="composite1" result="blur" stdDeviation=".2"/><feOffset id="feOffset4347" dx="0" dy="-.5" result="offset"/><feComposite id="feComposite4349" in="SourceGraphic" in2="offset" operator="over" result="composite2"/></filter></defs><g id="g10" transform="matrix(1.25,0,0,-1.25,0,64)"><g id="g4170" transform="matrix(0.96428571,0,0,0.96428571,0.91428571,0.91428571)" style="fill:url(#linearGradient4203);fill-opacity:1;filter:url(#filter4327)"><path id="path4244" d="M 8.9346154,40.515385 C 5.3647588,36.547307 3.2,31.357779 3.2,25.6 3.2,13.228821 13.228821,3.2 25.6,3.2 37.971179,3.2 48,13.228821 48,25.6 c 0,5.736682 -2.161128,10.952493 -5.707692,14.915385 -1.695935,-0.623286 -3.387833,-1.349065 -5.061539,-2.288462 3.2394,-0.937363 5.6,-3.937988 5.6,-7.457692 0,-4.260339 -3.469626,-7.753846 -7.753846,-7.753846 -3.633936,0 -6.690552,2.51055 -7.538461,5.869231 l -3.876924,0 c -0.840685,-3.360193 -3.903443,-5.869231 -7.538461,-5.869231 -4.284219,0 -7.7807693,3.493507 -7.7807693,7.753846 0,3.56112 2.4570323,6.5856 5.7615383,7.484616 -1.676267,0.912203 -3.404813,1.620556 -5.1692306,2.261538 z M 25.6,26.461538 c 0.532632,-1.981435 1.101793,-3.947553 3.446154,-5.16923 L 25.6,16.123077 22.153846,21.292308 c 2.053593,1.454966 3.000771,3.237758 3.446154,5.16923 z" style="fill:url(#linearGradient4309);fill-opacity:1;stroke:none"/><path id="path4242" d="m 16.123077,33.353847 c -1.427443,0 -2.584616,-1.157173 -2.584616,-2.584616 0,-1.427444 1.157173,-2.584615 2.584616,-2.584615 1.427444,0 2.584615,1.157171 2.584615,2.584615 0,1.427443 -1.157171,2.584616 -2.584615,2.584616 z" style="fill:url(#linearGradient4311);fill-opacity:1;stroke:none"/><path id="path4240" d="m 35.076923,33.353847 c -1.427443,0 -2.584615,-1.157173 -2.584615,-2.584616 0,-1.427444 1.157172,-2.584615 2.584615,-2.584615 1.427443,0 2.584616,1.157171 2.584616,2.584615 0,1.427443 -1.157173,2.584616 -2.584616,2.584616 z" style="fill:url(#linearGradient4313);fill-opacity:1;stroke:none"/></g><path style="fill:#737373;fill-opacity:1;stroke:none;filter:url(#filter4339)" id="path4248" d="m 25.6,47.2 c -4.373944,0 -8.437159,-1.399808 -11.838461,-3.634616 3.677605,-0.394237 7.305921,-1.342945 11.423077,-3.375 4.166157,2.122533 8.434154,3.008875 12.279808,3.452886 C 34.057131,45.890032 29.986674,47.2 25.6,47.2 Z"/><path style="fill:url(#linearGradient4211);fill-opacity:1;stroke:none;filter:url(#filter4315)" id="path4246" d="M 39.723077,42.552884 C 35.394064,42.5242 29.479588,40.397223 25.184616,38.432418 20.668821,40.064102 16.035448,42.649343 10.801923,42.526924 10.453022,42.51873 10.118061,42.50105 9.7634616,42.475 L 5.6615384,42.1375 9.5557693,40.839424 c 5.3417977,-1.74056 10.0398397,-2.851302 14.1749997,-10.025963 0.959101,0 2.845924,-4.15e-4 3.738462,-4.15e-4 4.11884,7.134039 9.059296,8.324614 14.149039,10.026378 L 45.460577,42.085577 41.4625,42.475 c -0.544847,0.05181 -1.120992,0.08198 -1.739423,0.07788 z"/></g></svg>
