<svg xmlns="http://www.w3.org/2000/svg" width="160" height="160" fill="#fff"><path d="M78.719 46.534c-5.968 0-11.407 2.252-15.522 5.949l13.608 13.608a19.04 19.04 0 0 1 2.854-.22c10.43 0 18.882 8.452 18.882 18.882a19.05 19.05 0 0 1-.22 2.854l23.599 23.599c3.518-1.153 6.059-4.459 6.059-8.363V64.697c0-4.861-3.941-8.803-8.803-8.803h-4.9v-1.687c0-2.112-1.717-3.822-3.829-3.822a3.82 3.82 0 0 0-3.822 3.822v1.687h-9.258c-4.236-5.683-11.012-9.36-18.647-9.36zm-3.191 3.052h6.455a3.67 3.67 0 0 1 3.668 3.668c0 1.037-.43 1.974-1.122 2.641H72.983c-.692-.667-1.122-1.604-1.122-2.641a3.67 3.67 0 0 1 3.668-3.668zM39.95 55.894c-4.862 0-8.803 3.941-8.803 8.803v38.146c0 4.861 3.941 8.803 8.803 8.803h59.588l-10.505-10.497a18.79 18.79 0 0 1-9.375 2.494 18.89 18.89 0 0 1-18.882-18.889 18.79 18.79 0 0 1 2.494-9.368L43.779 55.894H39.95zM79.563 5.271c-41.35 0-75 33.636-75 74.985s33.651 75 75 75 75-33.649 75-75-33.65-74.985-75-74.985zm0 11.737c35.007 0 63.263 28.242 63.263 63.248a63.03 63.03 0 0 1-14.085 39.847L39.723 31.085c10.868-8.807 24.721-14.077 39.84-14.077zM30.384 40.416l89.019 89.018a63.02 63.02 0 0 1-39.84 14.084c-35.006 0-63.263-28.255-63.263-63.263 0-15.12 5.275-28.974 14.085-39.84z"/></svg>
