<svg xmlns="http://www.w3.org/2000/svg" xmlns:svg="http://www.w3.org/2000/svg" id="svg2" width="160" height="160" version="1.1" xml:space="preserve"><metadata id="metadata8"/><g id="g10" transform="matrix(1.25,0,0,-1.25,0,160)"><g id="g3916" transform="matrix(0.23474178,0,0,0.23474178,-6.596479,-6.504096)"><path id="path28" d="m 370.46875,230.75 c -25.42532,0 -48.59369,9.59353 -66.125,25.34375 l 57.96875,57.96875 c 3.96533,-0.60105 8.02296,-0.9375 12.15625,-0.9375 44.43125,0 80.4375,36.00625 80.4375,80.4375 0,4.1334 -0.33645,8.19036 -0.9375,12.15625 L 554.5,506.25 c 14.98807,-4.91141 25.8125,-18.99541 25.8125,-35.625 l 0,-162.5 c 0,-20.71 -16.79,-37.5 -37.5,-37.5 l -20.875,0 0,-7.1875 c 0,-8.9975 -7.31375,-16.28125 -16.3125,-16.28125 -8.99625,0 -16.28125,7.28375 -16.28125,16.28125 l 0,7.1875 -39.4375,0 C 431.86011,246.414 402.99373,230.75 370.46875,230.75 z m -13.59375,13 27.5,0 c 8.63,0 15.625,6.99625 15.625,15.625 0,4.41759 -1.83365,8.40792 -4.78125,11.25 l -49.1875,0 c -2.94775,-2.84208 -4.78125,-6.83241 -4.78125,-11.25 0,-8.62875 6.99625,-15.625 15.625,-15.625 z" transform="matrix(0.8,0,0,-0.8,0,599)" style="fill:#fff;fill-opacity:1;fill-rule:nonzero;stroke:none"/><path id="path3901" d="m 164.25,382.5 c -16.569,0 -30,-13.432 -30,-30 l 0,-130 c 0,-16.568 13.431,-30 30,-30 l 203.075,0 -35.8,35.775 c -9.41466,-5.39918 -20.31889,-8.5 -31.95,-8.5 -35.543,0 -64.35,28.831 -64.35,64.375 0,11.62338 3.11098,22.51462 8.5,31.925 L 177.3,382.5 l -13.05,0 z" style="fill:#fff;fill-opacity:1;fill-rule:nonzero;stroke:none"/><path id="path36" d="m 374.0625,54.96875 c -176.1485,0 -319.5,143.28875 -319.5,319.4375 0,176.15678 143.35153,319.5 319.5,319.5 176.15077,0 319.5,-143.34335 319.5,-319.5 0,-176.14864 -143.3492,-319.4375 -319.5,-319.4375 z m 0,50 c 149.1292,0 269.5,120.31114 269.5,269.4375 0,64.41395 -22.47282,123.45239 -60,169.75 L 204.34375,164.9375 c 46.29727,-37.51599 105.31199,-59.96875 169.71875,-59.96875 z m -209.5,99.71875 379.21875,379.21875 c -46.2979,37.52569 -105.30826,60 -169.71875,60 -149.12653,0 -269.5,-120.36428 -269.5,-269.5 0,-64.4098 22.47246,-123.42872 60,-169.71875 z" transform="matrix(0.8,0,0,-0.8,0,599)" style="fill:#fff;fill-opacity:1;fill-rule:nonzero;stroke:none"/></g></g></svg>
