<?xml version="1.0" encoding="UTF-8" standalone="no"?>
<!-- Created with Inkscape (http://www.inkscape.org/) -->

<svg
   xmlns:dc="http://purl.org/dc/elements/1.1/"
   xmlns:cc="http://creativecommons.org/ns#"
   xmlns:rdf="http://www.w3.org/1999/02/22-rdf-syntax-ns#"
   xmlns:svg="http://www.w3.org/2000/svg"
   xmlns="http://www.w3.org/2000/svg"
   xmlns:sodipodi="http://sodipodi.sourceforge.net/DTD/sodipodi-0.dtd"
   xmlns:inkscape="http://www.inkscape.org/namespaces/inkscape"
   width="96"
   height="48"
   id="svg2"
   version="1.1"
   inkscape:version="0.48.4 r9939"
   sodipodi:docname="settings.svg"
   inkscape:export-filename="/media/data/projects/motioneye/static/img/settings.png"
   inkscape:export-xdpi="90"
   inkscape:export-ydpi="90">
  <defs
     id="defs4" />
  <sodipodi:namedview
     id="base"
     pagecolor="#ffffff"
     bordercolor="#666666"
     borderopacity="1.0"
     inkscape:pageopacity="0.0"
     inkscape:pageshadow="2"
     inkscape:zoom="17.085938"
     inkscape:cx="93.239037"
     inkscape:cy="25.695745"
     inkscape:document-units="px"
     inkscape:current-layer="layer1"
     showgrid="false"
     inkscape:window-width="1920"
     inkscape:window-height="1027"
     inkscape:window-x="0"
     inkscape:window-y="25"
     inkscape:window-maximized="1"
     inkscape:snap-bbox="true"
     inkscape:bbox-nodes="true"
     inkscape:bbox-paths="true"
     inkscape:snap-bbox-edge-midpoints="true"
     inkscape:snap-bbox-midpoints="true"
     inkscape:object-paths="true"
     inkscape:object-nodes="true"
     inkscape:snap-smooth-nodes="true"
     inkscape:snap-midpoints="true"
     inkscape:snap-object-midpoints="true"
     inkscape:snap-center="true"
     inkscape:snap-page="true"
     inkscape:snap-intersection-paths="true"
     showguides="true"
     inkscape:guide-bbox="true" />
  <metadata
     id="metadata7">
    <rdf:RDF>
      <cc:Work
         rdf:about="">
        <dc:format>image/svg+xml</dc:format>
        <dc:type
           rdf:resource="http://purl.org/dc/dcmitype/StillImage" />
        <dc:title />
      </cc:Work>
    </rdf:RDF>
  </metadata>
  <g
     inkscape:label="Layer 1"
     inkscape:groupmode="layer"
     id="layer1"
     transform="translate(0,-1004.3622)">
    <path
       style="fill:#3498db;fill-opacity:1;stroke:none"
       d="m 23,30 c -2.045693,0 -3.788228,1.240478 -4.5625,3 L 5,33 c -0.554,0 -1,0.446 -1,1 l 0,2 c 0,0.554 0.446,1 1,1 l 13.4375,0 c 0.774272,1.759522 2.516807,3 4.5625,3 2.045693,0 3.788228,-1.240478 4.5625,-3 L 43,37 c 0.554,0 1,-0.446 1,-1 l 0,-2 c 0,-0.554 -0.446,-1 -1,-1 L 27.5625,33 C 26.788228,31.240478 25.045693,30 23,30 z m 0,3 c 1.10457,0 2,0.89543 2,2 0,1.10457 -0.89543,2 -2,2 -1.10457,0 -2,-0.89543 -2,-2 0,-1.10457 0.89543,-2 2,-2 z"
       transform="translate(0,1004.3622)"
       id="rect3755"
       inkscape:connector-curvature="0" />
    <path
       style="fill:#3498db;fill-opacity:1;stroke:none"
       d="m 36,20 c -2.045693,0 -3.788228,1.240478 -4.5625,3 L 5,23 c -0.554,0 -1,0.446 -1,1 l 0,2 c 0,0.554 0.446,1 1,1 l 26.4375,0 c 0.774272,1.759522 2.516807,3 4.5625,3 2.045693,0 3.788228,-1.240478 4.5625,-3 L 43,27 c 0.554,0 1,-0.446 1,-1 l 0,-2 c 0,-0.554 -0.446,-1 -1,-1 l -2.4375,0 C 39.788228,21.240478 38.045693,20 36,20 z m 0,3 c 1.10457,0 2,0.89543 2,2 0,1.10457 -0.89543,2 -2,2 -1.10457,0 -2,-0.89543 -2,-2 0,-1.10457 0.89543,-2 2,-2 z"
       transform="translate(0,1004.3622)"
       id="rect3757"
       inkscape:connector-curvature="0" />
    <path
       style="fill:#3498db;fill-opacity:1;stroke:none"
       d="m 15,10 c -2.045692,0 -3.788228,1.240478 -4.5625,3 L 5,13 c -0.554,0 -1,0.446 -1,1 l 0,2 c 0,0.554 0.446,1 1,1 l 5.4375,0 c 0.774272,1.759522 2.516808,3 4.5625,3 2.045692,0 3.788228,-1.240478 4.5625,-3 L 43,17 c 0.554,0 1,-0.446 1,-1 l 0,-2 c 0,-0.554 -0.446,-1 -1,-1 L 19.5625,13 C 18.788228,11.240478 17.045692,10 15,10 z m 0,3 c 1.10457,0 2,0.89543 2,2 0,1.10457 -0.89543,2 -2,2 -1.10457,0 -2,-0.89543 -2,-2 0,-1.10457 0.89543,-2 2,-2 z"
       transform="translate(0,1004.3622)"
       id="rect3759"
       inkscape:connector-curvature="0" />
    <path
       sodipodi:type="arc"
       style="fill:none;stroke:#3498db;stroke-width:2.6408689;stroke-miterlimit:4;stroke-opacity:1;stroke-dasharray:none"
       id="path3764"
       sodipodi:cx="67.901237"
       sodipodi:cy="6.4814816"
       sodipodi:rx="20.098766"
       sodipodi:ry="19.518518"
       d="m 88.000004,6.4814816 a 20.098766,19.518518 0 1 1 -40.197533,0 20.098766,19.518518 0 1 1 40.197533,0 z"
       transform="matrix(0.74631447,0,0,0.76850096,21.324322,1023.3813)" />
    <path
       inkscape:connector-curvature="0"
       id="path3766"
       d="m 82,1030.3622 c 0.554,0 1,-0.446 1,-1 l 0,-2 c 0,-0.554 -0.446,-1 -1,-1 -13.004,0 -8.7461,0 -20,0 -0.554,0 -1,0.446 -1,1 l 0,2 c 0,0.554 0.446,1 1,1 12.4816,0 8.4097,0 20,0 z"
       style="fill:#3498db;fill-opacity:1;stroke:none"
       sodipodi:nodetypes="cssccsscc" />
  </g>
</svg>
