<svg xmlns="http://www.w3.org/2000/svg" width="144" height="48"><g fill="#3498db"><circle cy="18" cx="72" r="5.5"/><path d="M62 33c0-4 3-7.894 6-8.894 2 1.48 6.026 1.532 8 0 3 1 5.983 4.877 6 8.894z"/></g><circle cy="24" cx="24" r="17.5" fill="none" stroke="#3498db" stroke-width="3"/><g fill="#3498db"><rect rx="1" y="22" x="14" height="4" width="20"/><rect rx="1" y="16" x="14" height="4" width="20"/><rect width="20" height="4" x="14" y="28" rx="1"/></g><g fill="none" stroke="#3498db"><g stroke-width="2"><path d="M112 18l2 16h12l2-16zm-1-3h18m-13-2h8"/><path d="M120 22v9m3 0l1-9m-7 9l-1-9" stroke-linecap="round"/></g><g stroke-width="3"><circle r="17.5" cx="72" cy="24"/><circle cy="24" cx="120" r="17.5"/></g></g></svg>
