<svg xmlns="http://www.w3.org/2000/svg" xmlns:svg="http://www.w3.org/2000/svg" id="svg4231" width="144" height="48" version="1.1" viewBox="0 0 144 48"><metadata id="metadata4236"/><g id="layer1" transform="translate(0,-1004.3622)"><circle style="fill:#3498db;fill-opacity:1;stroke:none" id="path3881" cx="72" cy="1022.362" r="5.5"/><path style="fill:#3498db;fill-opacity:1;stroke:none;enable-background:new" id="path3883" d="m 61.999997,1037.3622 c 0,-4 3.00048,-7.8936 6.00048,-8.8936 2,1.4798 6.02601,1.5318 8,0 3,1 5.98301,4.8771 5.99952,8.8936 z"/><circle id="path4099" cx="24" cy="1028.362" r="17.5" style="fill:none;stroke:#3498db;stroke-width:3;stroke-miterlimit:4;stroke-dasharray:none;stroke-opacity:1"/><rect id="rect4038" width="20" height="4" x="14" y="1026.362" rx="1" ry="1" style="fill:#3498db;fill-opacity:1;stroke:none"/><rect id="rect4038-2" width="20" height="4" x="14" y="1020.362" rx="1" ry="1" style="fill:#3498db;fill-opacity:1;stroke:none"/><rect style="fill:#3498db;fill-opacity:1;stroke:none" id="rect4213" width="20" height="4" x="14" y="1032.362" rx="1" ry="1"/><path style="fill:none;fill-rule:evenodd;stroke:#3498db;stroke-width:2;stroke-linecap:butt;stroke-linejoin:miter;stroke-miterlimit:4;stroke-dasharray:none;stroke-opacity:1" id="path4219" d="m 111.99999,1022.3622 2,16 12,0 2,-16 z"/><path style="fill:none;fill-rule:evenodd;stroke:#3498db;stroke-width:2;stroke-linecap:butt;stroke-linejoin:miter;stroke-miterlimit:4;stroke-dasharray:none;stroke-opacity:1" id="path4221" d="m 110.99999,1019.3622 18,0"/><path id="path4223" d="m 115.99999,1017.3622 8,0" style="fill:none;fill-rule:evenodd;stroke:#3498db;stroke-width:2;stroke-linecap:butt;stroke-linejoin:miter;stroke-miterlimit:4;stroke-dasharray:none;stroke-opacity:1"/><path style="fill:none;fill-rule:evenodd;stroke:#3498db;stroke-width:2;stroke-linecap:round;stroke-linejoin:miter;stroke-miterlimit:4;stroke-dasharray:none;stroke-opacity:1" id="path4225" d="m 119.99999,1026.3622 0,9"/><path style="fill:none;fill-rule:evenodd;stroke:#3498db;stroke-width:2;stroke-linecap:round;stroke-linejoin:miter;stroke-miterlimit:4;stroke-dasharray:none;stroke-opacity:1" id="path4227" d="m 122.99999,1035.3622 1,-9"/><path style="fill:none;fill-rule:evenodd;stroke:#3498db;stroke-width:2;stroke-linecap:round;stroke-linejoin:miter;stroke-miterlimit:4;stroke-dasharray:none;stroke-opacity:1" id="path4229" d="m 116.99999,1035.3622 -1,-9"/><circle style="fill:none;stroke:#3498db;stroke-width:3;stroke-miterlimit:4;stroke-dasharray:none;stroke-opacity:1" id="circle4905" cx="72" cy="1028.362" r="17.5"/><circle id="circle4907" cx="120" cy="1028.362" r="17.5" style="fill:none;stroke:#3498db;stroke-width:3;stroke-miterlimit:4;stroke-dasharray:none;stroke-opacity:1"/></g></svg>
