<?xml version="1.0" encoding="UTF-8" standalone="no"?>
<!-- Created with Inkscape (http://www.inkscape.org/) -->

<svg
   xmlns:dc="http://purl.org/dc/elements/1.1/"
   xmlns:cc="http://creativecommons.org/ns#"
   xmlns:rdf="http://www.w3.org/1999/02/22-rdf-syntax-ns#"
   xmlns:svg="http://www.w3.org/2000/svg"
   xmlns="http://www.w3.org/2000/svg"
   xmlns:sodipodi="http://sodipodi.sourceforge.net/DTD/sodipodi-0.dtd"
   xmlns:inkscape="http://www.inkscape.org/namespaces/inkscape"
   id="svg2"
   version="1.1"
   inkscape:version="0.48.4 r9939"
   width="48"
   height="48"
   xml:space="preserve"
   sodipodi:docname="motioneye.svg"><metadata
     id="metadata8"><rdf:RDF><cc:Work
         rdf:about=""><dc:format>image/svg+xml</dc:format><dc:type
           rdf:resource="http://purl.org/dc/dcmitype/StillImage" /><dc:title /></cc:Work></rdf:RDF></metadata><defs
     id="defs6" /><sodipodi:namedview
     pagecolor="#969696"
     bordercolor="#666666"
     borderopacity="1"
     objecttolerance="10"
     gridtolerance="10"
     guidetolerance="10"
     inkscape:pageopacity="0.70196078"
     inkscape:pageshadow="2"
     inkscape:window-width="1920"
     inkscape:window-height="1030"
     id="namedview4"
     showgrid="false"
     inkscape:zoom="16.354248"
     inkscape:cx="47.677361"
     inkscape:cy="27.810209"
     inkscape:window-x="0"
     inkscape:window-y="25"
     inkscape:window-maximized="1"
     inkscape:current-layer="g10" /><g
     id="g10"
     inkscape:groupmode="layer"
     inkscape:label="ink_ext_XXXXXX"
     transform="matrix(1.25,0,0,-1.25,0,48)"><path
       sodipodi:type="arc"
       style="fill:none;stroke:#ffffff;stroke-width:9.05973721;stroke-linecap:round;stroke-linejoin:round;stroke-miterlimit:4;stroke-opacity:1;stroke-dasharray:none"
       id="path3789"
       sodipodi:cx="164.74074"
       sodipodi:cy="96.59259"
       sodipodi:rx="63.407406"
       sodipodi:ry="60.444443"
       d="m 228.14814,96.59259 c 0,33.38254 -28.38846,60.44444 -63.4074,60.44444 -35.01895,0 -63.40741,-27.0619 -63.40741,-60.44444 0,-33.382544 28.38846,-60.444442 63.40741,-60.444442 35.01894,0 63.4074,27.061898 63.4074,60.444442 z"
       transform="matrix(0.25864487,0,0,-0.27132354,-23.409347,-2.592158)" /><path
       style="font-size:medium;font-style:normal;font-variant:normal;font-weight:normal;font-stretch:normal;text-indent:0;text-align:start;text-decoration:none;line-height:normal;letter-spacing:normal;word-spacing:normal;text-transform:none;direction:ltr;block-progression:tb;writing-mode:lr-tb;text-anchor:start;baseline-shift:baseline;color:#000000;fill:#ffffff;fill-opacity:1;stroke:none;stroke-width:8.06000042;marker:none;visibility:visible;display:inline;overflow:visible;enable-background:accumulate;font-family:Sans;-inkscape-font-specification:Sans"
       d="m 19.344,27.142 c -2.295613,0 -4.348358,-0.983485 -5.661,-2.502 l -6.363,0 C 5.92392,24.64 4.8,23.51608 4.8,22.12 l 0,-10.8 C 4.8,9.92392 5.92392,8.8 7.32,8.8 l 23.76,0 c 1.39608,0 2.52,1.12392 2.52,2.52 l 0,10.8 c 0,1.39608 -1.12392,2.52 -2.52,2.52 l -0.936,0 0,0.324 a 1.440144,1.440144 0 1 1 -2.88,0 l 0,-0.324 -2.259,0 c -1.308955,1.518515 -3.365386,2.502 -5.661,2.502 z m -1.152,-1.062 2.304,0 c 0.39888,0 0.72,-0.32112 0.72,-0.72 l 0,-0.288 c 0,-0.39888 -0.32112,-0.72 -0.72,-0.72 l -2.304,0 c -0.39888,0 -0.72,0.32112 -0.72,0.72 l 0,0.288 c 0,0.39888 0.32112,0.72 0.72,0.72 z m 1.152,-4.32 c 2.942573,0 5.328,-2.385427 5.328,-5.328 0,-2.942573 -2.385427,-5.328 -5.328,-5.328 -2.942573,0 -5.328,2.385427 -5.328,5.328 0,2.942573 2.385427,5.328 5.328,5.328 z"
       id="path3803"
       inkscape:connector-curvature="0" /></g></svg>