<?xml version="1.0" encoding="UTF-8" standalone="no"?>
<!-- Created with Inkscape (http://www.inkscape.org/) -->

<svg
   xmlns:dc="http://purl.org/dc/elements/1.1/"
   xmlns:cc="http://creativecommons.org/ns#"
   xmlns:rdf="http://www.w3.org/1999/02/22-rdf-syntax-ns#"
   xmlns:svg="http://www.w3.org/2000/svg"
   xmlns="http://www.w3.org/2000/svg"
   xmlns:sodipodi="http://sodipodi.sourceforge.net/DTD/sodipodi-0.dtd"
   xmlns:inkscape="http://www.inkscape.org/namespaces/inkscape"
   width="80"
   height="16"
   id="svg2"
   version="1.1"
   inkscape:version="0.48.4 r9939"
   sodipodi:docname="top-bar-buttons.svg"
   inkscape:export-filename="/media/data/projects/motioneye/static/img/top-bar-buttons.png"
   inkscape:export-xdpi="90"
   inkscape:export-ydpi="90">
  <defs
     id="defs4" />
  <sodipodi:namedview
     id="base"
     pagecolor="#b39a9a"
     bordercolor="#666666"
     borderopacity="1.0"
     inkscape:pageopacity="0.42745098"
     inkscape:pageshadow="2"
     inkscape:zoom="2.25"
     inkscape:cx="111.39282"
     inkscape:cy="5.668431"
     inkscape:document-units="px"
     inkscape:current-layer="layer1"
     showgrid="false"
     inkscape:window-width="1920"
     inkscape:window-height="1030"
     inkscape:window-x="0"
     inkscape:window-y="25"
     inkscape:window-maximized="1"
     inkscape:snap-bbox="true"
     inkscape:bbox-nodes="true"
     inkscape:bbox-paths="true"
     inkscape:snap-bbox-edge-midpoints="true"
     inkscape:snap-bbox-midpoints="true"
     inkscape:object-paths="true"
     inkscape:object-nodes="true"
     inkscape:snap-smooth-nodes="true"
     inkscape:snap-midpoints="true"
     inkscape:snap-object-midpoints="true"
     inkscape:snap-center="true"
     inkscape:snap-page="true"
     inkscape:snap-intersection-paths="true"
     showguides="true"
     inkscape:guide-bbox="true" />
  <metadata
     id="metadata7">
    <rdf:RDF>
      <cc:Work
         rdf:about="">
        <dc:format>image/svg+xml</dc:format>
        <dc:type
           rdf:resource="http://purl.org/dc/dcmitype/StillImage" />
        <dc:title />
      </cc:Work>
    </rdf:RDF>
  </metadata>
  <g
     inkscape:label="Layer 1"
     inkscape:groupmode="layer"
     id="layer1"
     transform="translate(0,-1036.3622)">
    <path
       sodipodi:type="arc"
       style="fill:none;stroke:#3498db;stroke-width:0.84620845;stroke-linecap:round;stroke-linejoin:round;stroke-miterlimit:4;stroke-opacity:1;stroke-dasharray:none"
       id="path3752"
       sodipodi:cx="7.8036885"
       sodipodi:cy="8.2353296"
       sodipodi:rx="5.6186557"
       sodipodi:ry="5.3845448"
       d="m 13.422344,8.2353296 a 5.6186557,5.3845448 0 1 1 -11.2373112,0 5.6186557,5.3845448 0 1 1 11.2373112,0 z"
       transform="matrix(1.1568604,0,0,1.2071587,-1.0277779,1034.4208)" />
    <path
       style="fill:none;stroke:#3498db;stroke-width:1px;stroke-linecap:round;stroke-linejoin:round;stroke-opacity:1"
       d="m 5.5,5.5 5,5"
       id="path3756"
       inkscape:connector-curvature="0"
       transform="translate(0,1036.3622)"
       sodipodi:nodetypes="cc" />
    <path
       sodipodi:nodetypes="cc"
       inkscape:connector-curvature="0"
       id="path3758"
       d="m 10.5,1041.8622 -5,5"
       style="fill:none;stroke:#3498db;stroke-width:1px;stroke-linecap:round;stroke-linejoin:round;stroke-opacity:1" />
    <path
       sodipodi:type="arc"
       style="fill:none;stroke:#3498db;stroke-width:0.84620845;stroke-linecap:round;stroke-linejoin:round;stroke-miterlimit:4;stroke-opacity:1;stroke-dasharray:none"
       id="path3792"
       sodipodi:cx="7.8036885"
       sodipodi:cy="8.2353296"
       sodipodi:rx="5.6186557"
       sodipodi:ry="5.3845448"
       d="m 13.422344,8.2353296 a 5.6186557,5.3845448 0 1 1 -11.2373112,0 5.6186557,5.3845448 0 1 1 11.2373112,0 z"
       transform="matrix(-1.1568604,0,0,1.2071587,33.027778,1034.4209)" />
    <path
       sodipodi:nodetypes="cc"
       inkscape:connector-curvature="0"
       id="path3794"
       d="m 21.5,1046.8622 3,-3"
       style="fill:none;stroke:#3498db;stroke-width:1px;stroke-linecap:round;stroke-linejoin:round;stroke-opacity:1" />
    <path
       style="fill:none;stroke:#3498db;stroke-width:1px;stroke-linecap:round;stroke-linejoin:round;stroke-opacity:1"
       d="m 24.5,1043.8622 0,-2"
       id="path3796"
       inkscape:connector-curvature="0"
       sodipodi:nodetypes="cc" />
    <path
       sodipodi:nodetypes="cc"
       inkscape:connector-curvature="0"
       id="path3798"
       d="m 24.5,1043.8622 2,0"
       style="fill:none;stroke:#3498db;stroke-width:1px;stroke-linecap:round;stroke-linejoin:round;stroke-opacity:1" />
    <path
       style="fill:none;stroke:#3498db;stroke-width:1px;stroke-linecap:round;stroke-linejoin:round;stroke-opacity:1"
       d="m 27.5,1042.8622 -1,1"
       id="path3800"
       inkscape:connector-curvature="0"
       sodipodi:nodetypes="cc" />
    <path
       sodipodi:nodetypes="cc"
       inkscape:connector-curvature="0"
       id="path3802"
       d="m 25.5,1040.8622 -1,1"
       style="fill:none;stroke:#3498db;stroke-width:1px;stroke-linecap:round;stroke-linejoin:round;stroke-opacity:1" />
    <path
       transform="matrix(-1.1568604,0,0,1.2071587,49.027778,1034.4209)"
       d="m 13.422344,8.2353296 a 5.6186557,5.3845448 0 1 1 -11.2373112,0 5.6186557,5.3845448 0 1 1 11.2373112,0 z"
       sodipodi:ry="5.3845448"
       sodipodi:rx="5.6186557"
       sodipodi:cy="8.2353296"
       sodipodi:cx="7.8036885"
       id="path3759"
       style="fill:none;stroke:#3498db;stroke-width:0.84620845;stroke-linecap:round;stroke-linejoin:round;stroke-miterlimit:4;stroke-opacity:1;stroke-dasharray:none"
       sodipodi:type="arc" />
    <path
       sodipodi:nodetypes="ccccc"
       inkscape:connector-curvature="0"
       id="path3761"
       d="m 36.5,1041.8622 7,0 0,5 -7,0 z"
       style="fill:none;stroke:#3498db;stroke-width:1px;stroke-linecap:round;stroke-linejoin:round;stroke-opacity:1" />
    <path
       style="font-size:medium;font-style:normal;font-variant:normal;font-weight:normal;font-stretch:normal;text-indent:0;text-align:start;text-decoration:none;line-height:normal;letter-spacing:normal;word-spacing:normal;text-transform:none;direction:ltr;block-progression:tb;writing-mode:lr-tb;text-anchor:start;baseline-shift:baseline;color:#000000;fill:#3498db;fill-opacity:1;stroke:none;stroke-width:8.06000042;marker:none;visibility:visible;display:inline;overflow:visible;enable-background:accumulate;font-family:Sans;-inkscape-font-specification:Sans"
       d="m 56.025,1041.1703 c -0.717378,0 -1.358863,0.3074 -1.769063,0.7819 l -1.988437,0 c -0.436275,0 -0.7875,0.3512 -0.7875,0.7875 l 0,3.375 c 0,0.4363 0.351225,0.7875 0.7875,0.7875 l 7.425,0 c 0.436275,0 0.7875,-0.3512 0.7875,-0.7875 l 0,-3.375 c 0,-0.4363 -0.351225,-0.7875 -0.7875,-0.7875 l -0.2925,0 0,-0.1012 a 0.450045,0.450045 0 1 0 -0.9,0 l 0,0.1012 -0.705938,0 c -0.409047,-0.4745 -1.051682,-0.7819 -1.769062,-0.7819 z m -0.36,0.3319 0.72,0 c 0.12465,0 0.225,0.1004 0.225,0.225 l 0,0.09 c 0,0.1247 -0.10035,0.225 -0.225,0.225 l -0.72,0 c -0.12465,0 -0.225,-0.1003 -0.225,-0.225 l 0,-0.09 c 0,-0.1246 0.10035,-0.225 0.225,-0.225 z m 0.36,1.35 c 0.919555,0 1.665,0.7455 1.665,1.665 0,0.9196 -0.745445,1.665 -1.665,1.665 -0.919553,0 -1.665,-0.7454 -1.665,-1.665 0,-0.9195 0.745447,-1.665 1.665,-1.665 z"
       id="path3803"
       inkscape:connector-curvature="0" />
    <path
       sodipodi:type="arc"
       style="fill:none;stroke:#3498db;stroke-width:0.84620845;stroke-linecap:round;stroke-linejoin:round;stroke-miterlimit:4;stroke-opacity:1;stroke-dasharray:none"
       id="path3815"
       sodipodi:cx="7.8036885"
       sodipodi:cy="8.2353296"
       sodipodi:rx="5.6186557"
       sodipodi:ry="5.3845448"
       d="m 13.422344,8.2353296 a 5.6186557,5.3845448 0 1 1 -11.2373112,0 5.6186557,5.3845448 0 1 1 11.2373112,0 z"
       transform="matrix(-1.1568604,0,0,1.2071587,65.027778,1034.4209)" />
    <path
       transform="matrix(-1.1568604,0,0,1.2071587,81.027778,1034.4209)"
       d="m 13.422344,8.2353296 a 5.6186557,5.3845448 0 1 1 -11.2373112,0 5.6186557,5.3845448 0 1 1 11.2373112,0 z"
       sodipodi:ry="5.3845448"
       sodipodi:rx="5.6186557"
       sodipodi:cy="8.2353296"
       sodipodi:cx="7.8036885"
       id="path3817"
       style="fill:none;stroke:#3498db;stroke-width:0.84620845;stroke-linecap:round;stroke-linejoin:round;stroke-miterlimit:4;stroke-opacity:1;stroke-dasharray:none"
       sodipodi:type="arc" />
    <path
       style="fill:#3498db;fill-opacity:1;stroke:#3498db;stroke-width:1px;stroke-linecap:round;stroke-linejoin:round;stroke-opacity:1"
       d="m 69.5,1040.8622 6,3.5 -6,3.5 z"
       id="path3819"
       inkscape:connector-curvature="0"
       sodipodi:nodetypes="cccc" />
  </g>
</svg>
