<svg xmlns="http://www.w3.org/2000/svg" viewBox="0 0 64 64"><path d="M32 6c-5.265 0-10.156 1.685-14.25 4.375 4.427.475 8.794 1.617 13.75 4.063 5.015-2.555 10.152-3.622 14.781-4.156C42.18 7.577 37.28 6 32 6zm17 5.594c-5.211.035-12.33 1.666-17.5 4.031-5.436-1.964-11.013-4.147-17.312-4a24.76 24.76 0 0 0-1.25.063L8 12.094l4.688 1.563c6.43 2.095 12.085 4.395 17.063 13.031h4.5c4.958-8.587 10.905-10.983 17.031-13.032l4.625-1.5-4.812-.469A20.56 20.56 0 0 0 49 11.594zm-36.344 3.094C8.513 19.293 6 25.317 6 32c0 14.359 11.641 26 26 26s26-11.641 26-26c0-6.659-2.508-12.713-6.625-17.312-1.968.723-3.932 1.566-5.875 2.656A9.03 9.03 0 0 1 52 26c0 4.945-4.027 9-9 9-4.218 0-7.766-2.914-8.75-6.812h-4.5C28.774 32.088 25.219 35 21 35c-4.973 0-9.031-4.055-9.031-9 0-4.133 2.852-7.644 6.688-8.687-1.946-1.059-3.952-1.881-6-2.625zM21 23a3 3 0 1 0 0 6 3 3 0 1 0 0-6zm22 0a3 3 0 1 0 0 6 3 3 0 1 0 0-6zm-11 8c.618 2.3 1.279 4.582 4 6l-4 6-4-6c2.384-1.689 3.483-3.758 4-6z"/></svg>
