<?xml version="1.0" encoding="UTF-8" standalone="no"?>
<!-- Created with Inkscape (http://www.inkscape.org/) -->

<svg
   xmlns:dc="http://purl.org/dc/elements/1.1/"
   xmlns:cc="http://creativecommons.org/ns#"
   xmlns:rdf="http://www.w3.org/1999/02/22-rdf-syntax-ns#"
   xmlns:svg="http://www.w3.org/2000/svg"
   xmlns="http://www.w3.org/2000/svg"
   xmlns:sodipodi="http://sodipodi.sourceforge.net/DTD/sodipodi-0.dtd"
   xmlns:inkscape="http://www.inkscape.org/namespaces/inkscape"
   width="48"
   height="48"
   id="svg2"
   version="1.1"
   inkscape:version="0.48.4 r9939"
   sodipodi:docname="settings.svg"
   inkscape:export-filename="/media/data/projects/motioneye/static/img/settings.png"
   inkscape:export-xdpi="90"
   inkscape:export-ydpi="90">
  <defs
     id="defs4" />
  <sodipodi:namedview
     id="base"
     pagecolor="#ffffff"
     bordercolor="#666666"
     borderopacity="1.0"
     inkscape:pageopacity="0.0"
     inkscape:pageshadow="2"
     inkscape:zoom="7.59375"
     inkscape:cx="72.187114"
     inkscape:cy="23.704825"
     inkscape:document-units="px"
     inkscape:current-layer="layer1"
     showgrid="false"
     inkscape:window-width="1920"
     inkscape:window-height="1027"
     inkscape:window-x="0"
     inkscape:window-y="25"
     inkscape:window-maximized="1"
     inkscape:snap-bbox="true"
     inkscape:bbox-nodes="true"
     inkscape:bbox-paths="true"
     inkscape:snap-bbox-edge-midpoints="true"
     inkscape:snap-bbox-midpoints="true"
     inkscape:object-paths="true"
     inkscape:object-nodes="true"
     inkscape:snap-smooth-nodes="true"
     inkscape:snap-midpoints="true"
     inkscape:snap-object-midpoints="true"
     inkscape:snap-center="true"
     inkscape:snap-page="true"
     inkscape:snap-intersection-paths="true" />
  <metadata
     id="metadata7">
    <rdf:RDF>
      <cc:Work
         rdf:about="">
        <dc:format>image/svg+xml</dc:format>
        <dc:type
           rdf:resource="http://purl.org/dc/dcmitype/StillImage" />
        <dc:title />
      </cc:Work>
    </rdf:RDF>
  </metadata>
  <g
     inkscape:label="Layer 1"
     inkscape:groupmode="layer"
     id="layer1"
     transform="translate(0,-1004.3622)">
    <path
       style="fill:#3498db;fill-opacity:1;stroke:none;opacity:1"
       d="M 23 30 C 20.954307 30 19.211772 31.240478 18.4375 33 L 5 33 C 4.446 33 4 33.446 4 34 L 4 36 C 4 36.554 4.446 37 5 37 L 18.4375 37 C 19.211772 38.759522 20.954307 40 23 40 C 25.045693 40 26.788228 38.759522 27.5625 37 L 43 37 C 43.554 37 44 36.554 44 36 L 44 34 C 44 33.446 43.554 33 43 33 L 27.5625 33 C 26.788228 31.240478 25.045693 30 23 30 z M 23 33 C 24.10457 33 25 33.89543 25 35 C 25 36.10457 24.10457 37 23 37 C 21.89543 37 21 36.10457 21 35 C 21 33.89543 21.89543 33 23 33 z "
       transform="translate(0,1004.3622)"
       id="rect3755" />
    <path
       style="fill:#3498db;fill-opacity:1;stroke:none;opacity:1"
       d="M 36 20 C 33.954307 20 32.211772 21.240478 31.4375 23 L 5 23 C 4.446 23 4 23.446 4 24 L 4 26 C 4 26.554 4.446 27 5 27 L 31.4375 27 C 32.211772 28.759522 33.954307 30 36 30 C 38.045693 30 39.788228 28.759522 40.5625 27 L 43 27 C 43.554 27 44 26.554 44 26 L 44 24 C 44 23.446 43.554 23 43 23 L 40.5625 23 C 39.788228 21.240478 38.045693 20 36 20 z M 36 23 C 37.10457 23 38 23.89543 38 25 C 38 26.10457 37.10457 27 36 27 C 34.89543 27 34 26.10457 34 25 C 34 23.89543 34.89543 23 36 23 z "
       transform="translate(0,1004.3622)"
       id="rect3757" />
    <path
       style="fill:#3498db;fill-opacity:1;stroke:none;opacity:1"
       d="M 15 10 C 12.954308 10 11.211772 11.240478 10.4375 13 L 5 13 C 4.446 13 4 13.446 4 14 L 4 16 C 4 16.554 4.446 17 5 17 L 10.4375 17 C 11.211772 18.759522 12.954308 20 15 20 C 17.045692 20 18.788228 18.759522 19.5625 17 L 43 17 C 43.554 17 44 16.554 44 16 L 44 14 C 44 13.446 43.554 13 43 13 L 19.5625 13 C 18.788228 11.240478 17.045692 10 15 10 z M 15 13 C 16.10457 13 17 13.89543 17 15 C 17 16.10457 16.10457 17 15 17 C 13.89543 17 13 16.10457 13 15 C 13 13.89543 13.89543 13 15 13 z "
       transform="translate(0,1004.3622)"
       id="rect3759" />
  </g>
</svg>
